<svg version="1.1" viewBox="0.0 0.0 2880.0 2880.0" fill="none" stroke="none" stroke-linecap="square" stroke-miterlimit="10" xmlns:xlink="http://www.w3.org/1999/xlink" xmlns="http://www.w3.org/2000/svg"><clipPath id="p.0"><path d="m0 0l2880.0 0l0 2880.0l-2880.0 0l0 -2880.0z" clip-rule="nonzero"/></clipPath><g clip-path="url(#p.0)"><path fill="#000000" fill-opacity="0.0" d="m0 0l2880.0 0l0 2880.0l-2880.0 0z" fill-rule="evenodd"/><path fill="#660000" d="m1902.4902 240.0l0 0c53.020386 0 96.00183 42.981537 96.00183 96.00192l0 2207.996c0 25.461426 -10.11438 49.879883 -28.118286 67.883545c-18.003784 18.003906 -42.42224 28.118408 -67.883545 28.118408l-383.99622 0c-53.020386 0 -96.00195 -42.981445 -96.00195 -96.00195l0 -2207.996l0 0c0 -53.020386 42.981567 -96.00192 96.00195 -96.00192z" fill-rule="evenodd"/><path fill="#990000" d="m2325.7993 1152.0l0 576.0l-1152.0001 0l0 -576.0z" fill-rule="evenodd"/><path fill="#990000" d="m1173.7966 1728.0l-906.58276 -144.0l0 -288.0l906.58276 -144.0z" fill-rule="evenodd"/><path fill="#cc0000" d="m371.45935 960.0l0 0c35.346924 0 64.00128 28.654358 64.00128 64.00122l0 831.99756c0 16.974121 -6.742981 33.25305 -18.745544 45.255737c-12.002563 12.002563 -28.281555 18.745483 -45.255737 18.745483l-255.99744 0c-35.346924 0 -64.00128 -28.654297 -64.00128 -64.00122l0 -831.99756l0 0c0 -35.346863 28.654354 -64.00122 64.00128 -64.00122z" fill-rule="evenodd"/><path fill="#000000" fill-opacity="0.0" d="m1815.1116 240.0l-1379.6536 1200.0" fill-rule="evenodd"/><path stroke="#000000" stroke-width="4.0" stroke-linejoin="round" stroke-linecap="butt" d="m1815.1116 240.0l-1379.6536 1200.0" fill-rule="evenodd"/><path fill="#000000" fill-opacity="0.0" d="m1815.1116 2640.0l-1379.6536 -1200.0" fill-rule="evenodd"/><path stroke="#000000" stroke-width="4.0" stroke-linejoin="round" stroke-linecap="butt" d="m1815.1116 2640.0l-1379.6536 -1200.0" fill-rule="evenodd"/><path fill="#990000" d="m2197.1404 1152.0l158.34644 0l0 0c87.45239 0 158.34644 128.94202 158.34644 288.0c0 159.05798 -70.89404 288.0 -158.34644 288.0l-158.34644 0z" fill-rule="evenodd"/><path fill="#990000" d="m2325.7993 1561.1339l310.74 -60.57483l0 -121.14966l-310.74 -60.57483z" fill-rule="evenodd"/><path fill="#999999" fill-opacity="0.4" d="m2604.4473 960.0l0 960.0l-64.31494 0l0 -960.0z" fill-rule="evenodd"/><path fill="#999999" fill-opacity="0.4" d="m2604.4473 960.0l0 960.0l-64.31494 0l0 -960.0z" fill-rule="evenodd"/><path fill="#000000" d="m1815.1116 1151.9843l0 0c223.28821 0 404.29907 128.94202 404.29907 288.0l0 0c0 76.382324 -42.59546 149.63623 -118.41626 203.64673c-75.82092 54.010498 -178.656 84.35327 -285.8828 84.35327l0 0c-223.28833 0 -404.2992 -128.94202 -404.2992 -288.0l0 0c0 -159.05798 181.01086 -288.0 404.2992 -288.0z" fill-rule="evenodd"/><path fill="#cc0000" d="m2007.1096 240.0l0 0c53.020508 0 96.00195 42.981537 96.00195 96.00192l0 2207.996c0 25.461426 -10.114502 49.879883 -28.118408 67.883545c-18.003662 18.003906 -42.42224 28.118408 -67.883545 28.118408l-383.9961 0c-53.020508 0 -96.00195 -42.981445 -96.00195 -96.00195l0 -2207.996l0 0c0 -53.020386 42.981445 -96.00192 96.00195 -96.00192z" fill-rule="evenodd"/></g></svg>