<svg version="1.1" viewBox="0.0 0.0 480.0 480.0" fill="none" stroke="none" stroke-linecap="square" stroke-miterlimit="10" xmlns:xlink="http://www.w3.org/1999/xlink" xmlns="http://www.w3.org/2000/svg"><clipPath id="p.0"><path d="m0 0l480.0 0l0 480.0l-480.0 0l0 -480.0z" clip-rule="nonzero"/></clipPath><g clip-path="url(#p.0)"><path fill="#000000" fill-opacity="0.0" d="m0 0l480.0 0l0 480.0l-480.0 0z" fill-rule="evenodd"/><defs><radialGradient id="p.1" gradientUnits="userSpaceOnUse" gradientTransform="matrix(18.423117360556542 0.0 0.0 18.423117360556542 0.0 0.0)" spreadMethod="pad" cx="13.0270400479494" cy="13.027111281060083" fx="13.0270400479494" fy="13.027111281060083" r="18.42311668395996"><stop offset="0.0" stop-color="#ed1c24"/><stop offset="0.7" stop-color="#ed1c24" stop-opacity="0.0"/><stop offset="0.70000005" stop-color="#ffffff" stop-opacity="0.0"/><stop offset="1.0" stop-color="#ffffff" stop-opacity="0.0"/></radialGradient></defs><path fill="url(#p.1)" d="m-0.001312336 240.0l0 0c0 -132.54834 107.45166 -240.0 240.0 -240.0l0 0c63.651947 0 124.6969 25.285643 169.70563 70.29437c45.008728 45.008728 70.29437 106.053665 70.29437 169.70563l0 0c0 132.54834 -107.45166 240.0 -240.0 240.0l0 0c-132.54834 0 -240.0 -107.45166 -240.0 -240.0z" fill-rule="evenodd"/></g></svg>